# xmcd
#
# Track frame offsets:
#	150
#	16625
#	32934
#	42574
#	56549
#	69553
#	83054
#	93691
#	104890
#	121655
#	131444
#	143072
#
# Disc length: 2011 seconds
#
# Revision: 0
# Processed by: cddbd v1.5.1PL2 Copyright (c) Steve Scherf et al.
# Submitted via: dBpowerAMP V4.0
#
DISCID=a307d90c
DTITLE=Johnny Cash - A Man In Black [Columbia]
DYEAR=1900
DGENRE=Country
TTITLE0=The Preacher Said Jesus Said
TTITLE1=Orphan Of The Road
TTITLE2=You've Got a New Light Shining in Your Eyes
TTITLE3=If Not for Love
TTITLE4=Man in Black
TTITLE5=Singing in Vietnam Talking Blues
TTITLE6=Ned Kelly
TTITLE7=Look for Me
TTITLE8=Dear Mrs.
TTITLE9=I Talk to Jesus Every Day
TTITLE10=Ballad of Little Fauss and Big Halsey
TTITLE11=Ballad of Little Fauss and Big Halsey (instrumental)
EXTD=
EXTT0=
EXTT1=
EXTT2=
EXTT3=
EXTT4=
EXTT5=
EXTT6=
EXTT7=
EXTT8=
EXTT9=
EXTT10=
EXTT11=
PLAYORDER=
